<svg xmlns="http://www.w3.org/2000/svg" width="339.75" height="170.158" viewBox="0 0 89.892 45.021"><defs><clipPath id="a"><path class="cls-1" d="M459.93 188.55h106.25v29.28H459.93z"/></clipPath><clipPath id="b"><path class="cls-1" d="M459.93 188.55h106.25v29.28H459.93z"/></clipPath></defs><path class="cls-11" d="M86.92 2.976a2.963 2.963 0 00-2.43 1.262 5.943 5.943 0 00-11.211-.502 2.971 2.971 0 00-4.956 2.211h21.57a2.971 2.971 0 00-2.972-2.97" fill="#e5f3f9"/><g class="cls-9" fill="#e5f3f9"><g class="cls-12" clip-path="url(#a)" transform="translate(-121.69 -12.61) scale(.26458)"><g class="cls-13" clip-path="url(#b)"><path class="cls-11" d="M551.54 203.19a14.62 14.62 0 00-12 6.23 29.27 29.27 0 00-55.21-2.48 14.64 14.64 0 00-24.42 10.88h106.27a14.64 14.64 0 00-14.64-14.63"/></g></g></g></svg>