<svg id="Layer_1" data-name="Layer 1" xmlns="http://www.w3.org/2000/svg" viewBox="0 0 714.45 621"><defs><style>.cls-1{fill:#39c1cd}.cls-2{fill:#f15b43}</style></defs><path class="cls-1" d="M442.52 516.44c6.17 6.54 11.94 13.13 16.41 20.75 2.26 3.87 4.23 7.88 4.92 12.36 1.34 8.86-1.58 16.06-8.83 21.31a21.46 21.46 0 01-27.2-1.84 21.89 21.89 0 01-5.5-23.42 63.52 63.52 0 0111-18.51c2.95-3.6 6.07-7.07 9.17-10.65"/><path class="cls-2" d="M49 147.52h19.61c34.14 0 43.82-23.72 43.82-49.15 0-10.16-2.18-23-8.71-33.16-5.33-8-14.53-16.47-34.87-16.47H49zM3.24 8.56h59.32c20.09 0 55.92 0 79.17 33.41 12.34 16.94 16.46 36.03 16.46 55.68 0 48.9-24.21 90.06-92.24 90.06H3.24zm172.68 44.78h37.77v14.29h.48c3.39-6.54 10.42-18.89 33.66-18.89v40.43c-18.64.49-31.72 4.36-31.72 24.7v73.84h-40.19zm98.31 0h40.19v134.37h-40.19zm64.16 0h37.52v14.29h.48C380.51 61.09 389 48.74 413 48.74c12.83 0 27.12 5.33 34.38 11.62s15.49 17 15.49 43.34v84h-40.23v-73.35c0-9.44 0-27.84-21.07-27.84-23 0-23 19.85-23 28.08v73.12h-40.18zM487.75 8.55h40.19v93.46h.48l37.29-48.67h47.69l-50.6 59.08 49.15 75.29h-45.52l-38.01-64.64h-.48v64.64h-40.19V8.55z"/><path class="cls-1" d="M35.35 243.76H0v-40.19h116.21v40.19H81.1v138.96H35.35V243.76z"/><path class="cls-1" d="M175.8 349.8c25.18 0 33.65-21.31 33.65-34.38 0-16.22-11.13-34.14-33.89-34.14-23 0-33.17 19.37-33.17 34.62 0 12.59 9.2 33.9 33.41 33.9m73.84 32.92h-40.19V368.2H209c-6.78 13.07-23.48 19.12-39.22 19.12-42.61 0-67.55-33.41-67.55-71.9 0-44.06 31.72-71.66 67.55-71.66 22 0 34.38 10.65 39.22 18.88h.48v-14.28h40.19zm25.44-179.15h40.19v57.14h.48c6.78-12.11 20.34-16.95 34.62-16.95 12.83 0 28.09 4.6 36.56 14.77 11.38 13.31 12.59 25.18 12.59 49.14v75.05h-40.19v-73.11c0-6.54 0-28.08-21.55-28.08-22.51 0-22.51 20.09-22.51 26.63v74.56h-40.19zm215.19 145.75c17.44 0 32.2-14.29 32.2-33.9s-14.76-33.89-32.2-33.89-32.2 14.28-32.2 33.89 14.77 33.9 32.2 33.9m0-105.32c48.91 0 72.39 38.49 72.39 71.42s-23.48 71.42-72.39 71.42-72.38-38.49-72.38-71.42S441.37 244 490.27 244m183.99 56.65c-1.69-8-9.68-23-30.5-23s-28.81 15-30.51 23zm35.59 40c-6.54 15-16 26.63-27.36 34.38a65.27 65.27 0 01-38.25 12.1c-38.49 0-71.18-31.23-71.18-71.18 0-37.52 29.54-72.14 70.45-72.14s70.94 32.44 70.94 73.35a55.41 55.41 0 01-1 10.66H612.77c2.42 16 15.73 25.42 31.47 25.42 12.35 0 18.88-5.57 24.45-12.59zM175.8 543.29c25.18 0 33.65-21.31 33.65-34.38 0-16.22-11.13-34.14-33.89-34.14-23 0-33.17 19.37-33.17 34.62 0 12.59 9.2 33.9 33.41 33.9m73.84 32.92h-40.19v-14.52H209c-6.78 13.07-23.48 19.12-39.22 19.12-42.61 0-67.55-33.41-67.55-71.9 0-44.06 31.72-71.66 67.55-71.66 22 0 34.38 10.65 39.22 18.88h.48v-14.28h40.19zm131.24-67.06c0-16-11.62-34.38-33.65-34.38s-33.66 18.4-33.66 34.38c0 17 12.59 34.14 33.66 34.14s33.65-17.19 33.65-34.14m-105.8-67.3h37.77v14.76h.72c8-10.16 21.31-19.36 41.89-19.36 47.69 0 65.61 41.88 65.61 73.11 0 38.74-27.12 70.45-65.37 70.45-24.21 0-35.59-11.62-40.43-16.7V621h-40.19z"/><path class="cls-2" d="M294.69 41.16H294A20.58 20.58 0 11294 0h.73a20.58 20.58 0 010 41.16"/><path class="cls-1" d="M35.35 437.25H0v-40.19h116.21v40.19H81.1v138.96H35.35V437.25z"/></svg>