<svg xmlns="http://www.w3.org/2000/svg" id="Layer_1" data-name="Layer 1" version="1.1" width="666.05" height="348.131"><defs id="defs22"><clipPath id="clip-path"><path class="cls-1" id="rect4" d="M568.87 292.12h317.11v80.95H568.87z"/></clipPath><clipPath id="clip-path-2"><path class="cls-1" id="rect7" d="M568.87 292.12h317.11v80.95H568.87z"/></clipPath><clipPath id="clip-path-3"><path class="cls-1" id="rect10" d="M184.29 288.46h153.46v45.14H184.29z"/></clipPath><clipPath id="clip-path-5"><path class="cls-1" id="rect13" d="M718.16 47.67h81.52v22.46h-81.52z"/></clipPath><clipPath id="clip-path-7"><path class="cls-1" id="rect16" d="M459.93 188.55h106.25v29.28H459.93z"/></clipPath><clipPath id="clip-path-8"><path class="cls-1" id="rect19" d="M459.93 188.55h106.25v29.28H459.93z"/></clipPath><clipPath id="clip-path-37"><path id="rect4-8" class="cls-1" d="M568.87 292.12h317.11v80.95H568.87z"/></clipPath><clipPath id="clip-path-2-5"><path id="rect7-0" class="cls-1" d="M568.87 292.12h317.11v80.95H568.87z"/></clipPath><clipPath id="clip-path-3-2"><path id="rect10-6" class="cls-1" d="M184.29 288.46h153.46v45.14H184.29z"/></clipPath><clipPath id="clipPath980"><path id="rect978" class="cls-1" d="M184.29 288.46h153.46v45.14H184.29z"/></clipPath><style id="style2">.cls-1{fill:none}.cls-2{fill:#166c74}.cls-4{fill:#1d858e}.cls-11{fill:#f0feff}.cls-14{fill:#145759}</style></defs><path class="cls-2" d="M454.04 301.551c-24.7-27.65-50.26-54.39-73.88-83-12-14.59-23.7-29.52-34.4-45.12-8.89-13-15.45-27.34-24.05-40.45v.06l-1.74-2.7c-.57-.83-1.15-1.66-1.74-2.48a5.6 5.6 0 01-.64-1.12 5.39 5.39 0 01-.83-1.38l-19.57-30.36a7.46 7.46 0 00-12.56 0l-153 237.58h337.44a5.11 5.11 0 0110 0h1c-8.28-10.66-17.03-20.95-26.03-31.03z" id="path24"/><path class="cls-2" d="M447.9 6.681a14.58 14.58 0 00-24.51 0l-87.3 135.61c-2.28 7.76-6.6 13.57-13.3 19.14a89.19 89.19 0 01-25.5 14.78 79.25 79.25 0 01-46.67 3.26l-107 166.12h318.5l203.93-.06z" id="path26"/><path class="cls-4" d="M518.7 245.831l-13.47 33.7a1.75 1.75 0 001.63 2.4h26.92a1.75 1.75 0 001.62-2.4l-13.46-33.7a1.74 1.74 0 00-3.24 0" id="path30"/><path class="cls-11" d="M423.29 6.741l-45.34 70.43h115.39l-45.35-70.43a14.68 14.68 0 00-24.69 0" id="path108" fill="#cbe8f3" fill-opacity="1"/><path class="cls-11" d="M296.98 94.521a7.22 7.22 0 00-12.15 0l-24.8 38.53h61.76z" id="path110" fill="#cbe8f3" fill-opacity="1"/><path class="cls-4" d="M351.98 213.671l-17.38 43.52a2.14 2.14 0 002 2.93h34.77a2.13 2.13 0 002-2.93l-17.38-43.52a2.14 2.14 0 00-4 0" id="path114"/><path class="cls-14" id="rect116" d="M475.06 228.351h5.09v13.97h-5.09z"/><path class="cls-4" d="M475.98 192.361l-13.46 33.7a1.75 1.75 0 001.62 2.39h26.93a1.75 1.75 0 001.62-2.39l-13.46-33.7a1.75 1.75 0 00-3.25 0" id="path118"/><path class="cls-14" id="rect120" d="M317.71 267.161h4.37v7h-4.37z"/><path class="cls-4" d="M318.66 238.821l-10.59 26.51a1.34 1.34 0 001.24 1.83h21.18a1.34 1.34 0 001.24-1.83l-10.59-26.51a1.34 1.34 0 00-2.48 0" id="path122"/><path class="cls-14" id="rect124" d="M451.14 264.961h4.37v7h-4.37z"/><path class="cls-4" d="M452.09 236.621l-10.59 26.51a1.34 1.34 0 001.24 1.83h21.18a1.34 1.34 0 001.24-1.83l-10.59-26.51a1.34 1.34 0 00-2.48 0" id="path126"/><path class="cls-1" id="rect132" d="M0 19.941h504.73v328.19H0z"/></svg>