<svg xmlns="http://www.w3.org/2000/svg" xmlns:xlink="http://www.w3.org/1999/xlink" height="255.78" width="407.839" version="1.1" id="Scruffs"><defs id="defs22"><linearGradient gradientUnits="userSpaceOnUse" gradientTransform="rotate(90 263.32 147.74)" y2="128.29" x2="202.15" y1="71.93" x1="135.21" id="linear-gradient"><stop id="stop7" stop-color="#6bd5ff" offset="0"/><stop id="stop9" stop-color="#49c4f5" offset="1"/></linearGradient><linearGradient xlink:href="#linear-gradient" y2="19.85" x2="254.11" y1="19.85" x1="236.33" id="linear-gradient-2"/><linearGradient gradientUnits="userSpaceOnUse" gradientTransform="rotate(90 263.32 147.74)" y2="323.59" x2="311.21" y1="323.59" x1="340.14" id="linear-gradient-3"><stop id="stop16" stop-opacity=".03" stop-color="#49c4f5" offset="0"/><stop id="stop18" stop-color="#49c4f5" offset="1"/></linearGradient><linearGradient xlink:href="#linear-gradient" gradientTransform="rotate(102.1 254.838 152.802)" y2="276.86" x2="260.09" y1="271.82" x1="256.56" id="linear-gradient-4"/><linearGradient y2="128.29" x2="202.15" y1="71.93" x1="135.21" gradientTransform="rotate(90 263.32 147.74)" gradientUnits="userSpaceOnUse" id="linearGradient931" xlink:href="#linear-gradient"/><clipPath id="clip-path"><path id="path4" d="M159.13 255.75A24.41 24.41 0 00176 239.44a24.38 24.38 0 0022.72 5.71 24.4 24.4 0 0016.82-16.3 24.43 24.43 0 0022.72 5.71A24.42 24.42 0 00255 218.25a24.4 24.4 0 0022.76 5.75c.36-.1.73-.18 1.08-.29l33.65-9c36.49-9.78 38.2-74.43 66.91-82.12l13.79-3.7-14.49-54.14-13.79 3.7c-30.64 8.21-62.52-47.44-99-37.66l-33.65 9c-.36.08-.72.2-1.08.29a24.41 24.41 0 00-16.83 16.32 24.41 24.41 0 00-22.72-5.71A24.43 24.43 0 00174.8 77a24.4 24.4 0 00-22.72-5.7 24.38 24.38 0 00-16.82 16.3 24.4 24.4 0 00-22.72-5.71" class="cls-1"/></clipPath><clipPath id="clip-path-2"><path id="path12" d="M169.5 199.64a37.15 37.15 0 10-19.23-71.76" class="cls-1"/></clipPath><style id="style2">.cls-1{fill:none}.cls-2{fill:#6bd5ff}.cls-3{fill:#49c4f5}.cls-5{fill:#e6e6e6}.cls-6{fill:#1e4f73}</style></defs><path id="path24" d="M277.76 224c.36-.1.73-.18 1.08-.29l33.65-9c16.5-4.43 25.89-20.07 33.88-36.59a4.84 4.84 0 00-.93-5.54l-4.08-4.08a1.89 1.89 0 011.33-3.23h6.65a4.82 4.82 0 004.36-2.74c6.88-14.37 14.07-26.83 25.7-29.94l13.79-3.7-14.49-54.14-13.79 3.7c-30.64 8.21-62.52-47.44-99-37.66l-33.65 9c-.36.08-.72.2-1.08.29l-118.64 31.8 46.59 173.87z" class="cls-2"/><path id="path26" d="M83.41 242.61a2.86 2.86 0 015 0l5.14 8.9a8.53 8.53 0 007.39 4.27h18.72a24.4 24.4 0 0020.47-11.4 24.42 24.42 0 0020.47 11.4v-174a24.42 24.42 0 00-20.47 11.39 24.39 24.39 0 00-20.47-11.39H72.24a3.82 3.82 0 00-2.69 1.11l-4 4a3.27 3.27 0 01-4.64 0l-4-4a3.8 3.8 0 00-2.68-1.11h-8.9A45.23 45.23 0 000 127v83.19a45.71 45.71 0 0045.57 45.57h25.31a8.54 8.54 0 007.39-4.27z" class="cls-2"/><path id="path28" d="M83.41 242.61a2.86 2.86 0 015 0l5 8.6a8.53 8.53 0 007.38 4.27h18.9a24.4 24.4 0 0020.47-11.4 24.42 24.42 0 0020.47 11.4v-35a24.42 24.42 0 01-20.47-11.4 24.4 24.4 0 01-20.47 11.4H45.24c-25 0-45.24-20.59-45.24-45.57v35a45.71 45.71 0 0045.57 45.57h25.48a8.53 8.53 0 007.39-4.27z" class="cls-3"/><path id="path30" d="M76 116.52l3.09 3.09a5.834 5.834 0 008.25-8.25l-3.09-3.09 3.09-3.09a5.834 5.834 0 00-8.25-8.25L76 100l-3.1-3.09a5.83 5.83 0 00-8.24 8.25l3.09 3.09-3.09 3.09a5.873 5.873 0 008.34 8.27z" class="cls-3"/><path id="path32" d="M277.76 224c.36-.1.73-.18 1.08-.29l33.65-9c16.5-4.43 25.89-20.07 33.88-36.59a4.84 4.84 0 00-.93-5.54l-4.08-4.08a1.89 1.89 0 011.33-3.23h6.65a4.82 4.82 0 004.36-2.74c6.88-14.37 14.07-26.83 25.7-29.94l13.79-3.7L384.14 95l-13.8 3.7c-28.7 7.69-30.42 72.34-66.91 82.12l-33.65 9c-.35.12-.72.2-1.08.29l-118.63 31.83 9.06 33.81z" class="cls-3"/><path id="rect34" transform="rotate(75)" fill="#fff" d="M108.213-207.454h180v119h-180z"/><path id="path36" d="M215 66.29c2.07-6.56 6.77-12.6 13.36-15.45l-32.65 8.76c7.13-.83 14.21 2.05 19.29 6.69z" class="cls-5"/><path id="path38" d="M216.15 228.74c-2 6.31-6.42 12.18-12.64 15.11l31.15-8.34c-6.85.57-13.66-2.3-18.51-6.77z" class="cls-5"/><path id="path40" d="M176.61 239.33c-2 6.32-6.42 12.19-12.64 15.12l31.14-8.34c-6.85.56-13.61-2.31-18.5-6.78z" class="cls-5"/><path id="path42" d="M255.69 218.14c-2 6.32-6.42 12.18-12.63 15.12l31.14-8.35c-6.85.57-13.61-2.3-18.51-6.77z" class="cls-5"/><path id="path44" d="M175.46 76.88c2.08-6.56 6.78-12.59 13.37-15.44l-32.67 8.75c7.13-.83 14.22 2.05 19.3 6.69z" class="cls-5"/><path id="path46" d="M135.92 87.48c2.08-6.56 6.78-12.6 13.37-15.48l-32.67 8.76c7.13-.76 14.22 2.08 19.3 6.72z" class="cls-5"/><g id="Eyes"><path id="path48" d="M220.74 173a17.56 17.56 0 009.09 33.92" class="cls-6"/><path id="path50" d="M217.73 113.77a17.56 17.56 0 10-24 6.42 17.56 17.56 0 0024-6.42z" class="cls-6"/></g><g id="g55" clip-path="url(#clip-path)"><circle id="circle53" r="40" cy="50.45" cx="313.18" fill="url(#linearGradient931)"/></g><g id="g60" clip-path="url(#clip-path-2)"><path id="path57" d="M169.5 199.64a37.15 37.15 0 10-19.23-71.76" class="cls-6"/><path d="M195.43 137.42L182 138.49l1.5 18.72 13.56-1.09c-.81-9.43-1.51-17.54-1.61-18.43.01-.1-.01-.18-.02-.27z" id="Toof" fill="#dbf4ff"/></g><circle id="circle62" r="13.79" cy="219.36" cx="193.61" class="cls-5"/><circle id="circle64" r="13.79" cy="94.76" cx="160.22" class="cls-5"/><path id="path66" d="M389.28 138.54a7.54 7.54 0 005.48-6.25 7.49 7.49 0 0012.82-6.94l-15.14-56.5a7.49 7.49 0 00-14.67.93 7.49 7.49 0 00-12.82 7l15.14 56.5a7.53 7.53 0 009.19 5.26z" class="cls-2"/><path id="path68" d="M394.76 132.29a7.54 7.54 0 01-5.48 6.25l-1.61-15.25a2.29 2.29 0 014.49-.82z" fill="url(#linear-gradient-2)"/><path id="path70" d="M113.49 239.33v-44.44a4.63 4.63 0 00-8-3.15l-44 47.59z" fill="url(#linear-gradient-3)"/><path id="path99" d="M135.8 138.66a7.57 7.57 0 01-.8-15.12c3-.16 10.1 3.45 13.76 5.45a1.65 1.65 0 01.15 2.81c-3.44 2.37-10.09 6.7-13.11 6.86z" fill="url(#linear-gradient-4)"/><path id="path101" d="M129.65 129.86a6.22 6.22 0 006.54 5.88c3-.15 10.43-5.36 12.17-6.61a.29.29 0 00.12-.29c-3.74-2-10.53-5.46-13.48-5.3a7.69 7.69 0 00-1.44.21 6.23 6.23 0 00-3.91 6.11z" class="cls-2"/></svg>