<svg xmlns="http://www.w3.org/2000/svg" xmlns:xlink="http://www.w3.org/1999/xlink" id="svg104" version="1.1" viewBox="0 0 295.48 423.54"><defs id="defs22"><linearGradient gradientUnits="userSpaceOnUse" y2="140.78" x2="86.57" y1="84.41" x1="19.64" id="linear-gradient"><stop id="stop7" stop-color="#6bd5ff" offset="0"/><stop id="stop9" stop-color="#49c4f5" offset="1"/></linearGradient><linearGradient xlink:href="#linear-gradient" y2="32.33" x2="138.54" y1="32.33" x1="120.76" id="linear-gradient-2"/><linearGradient gradientUnits="userSpaceOnUse" y2="336.07" x2="195.64" y1="336.07" x1="224.56" id="linear-gradient-3"><stop id="stop16" stop-opacity=".03" stop-color="#49c4f5" offset="0"/><stop id="stop18" stop-color="#49c4f5" offset="1"/></linearGradient><linearGradient xlink:href="#linear-gradient" gradientTransform="rotate(11.5 129.625 280.56)" y2="295.36" x2="134.84" y1="290.32" x1="131.31" id="linear-gradient-4"/><clipPath id="clip-path"><path id="path4" d="M255.75 264.41a24.41 24.41 0 00-16.31-16.82 24.38 24.38 0 005.71-22.72 24.4 24.4 0 00-16.3-16.82 24.43 24.43 0 005.71-22.72 24.39 24.39 0 00-16.31-16.82 24.43 24.43 0 005.75-22.73c-.1-.36-.18-.73-.29-1.08l-9-33.64c-9.78-36.5-74.43-38.21-82.12-66.92l-3.7-13.79-54.14 14.49 3.7 13.79c8.21 30.64-47.44 62.52-37.66 99l9 33.65c.08.36.2.72.29 1.08a24.39 24.39 0 0016.32 16.83 24.42 24.42 0 00-5.71 22.73A24.42 24.42 0 0077 248.74a24.4 24.4 0 00-5.7 22.72 24.38 24.38 0 0016.3 16.82A24.4 24.4 0 0081.88 311" class="cls-1"/></clipPath><clipPath id="clip-path-2"><path id="path12" d="M201.13 257.47a37.14 37.14 0 10-71.75 19.23" class="cls-1"/></clipPath><style id="style2">.cls-1{fill:none}.cls-2{fill:#6bd5ff}.cls-3{fill:#49c4f5}.cls-4{fill:#fff}.cls-5{fill:#e6e6e6}.cls-6{fill:#1e4f73}</style></defs><g id="Scruffs"><path id="path24" d="M224 145.78c-.1-.36-.18-.73-.29-1.08l-9-33.64c-4.43-16.51-20.07-25.9-36.59-33.89a4.86 4.86 0 00-5.54.93l-4.08 4.09a1.89 1.89 0 01-3.23-1.34V74.2a4.82 4.82 0 00-2.74-4.36c-14.37-6.87-26.83-14.07-29.94-25.7l-3.7-13.79-54.14 14.49 3.7 13.79c8.21 30.64-47.44 62.52-37.66 99l9 33.65c.08.36.2.72.29 1.08L81.88 311l173.87-46.59z" class="cls-2"/><path id="path26" d="M242.61 340.13a2.86 2.86 0 010-5l8.9-5.14a8.53 8.53 0 004.27-7.39v-18.68a24.4 24.4 0 00-11.4-20.47 24.41 24.41 0 0011.4-20.45h-174a24.4 24.4 0 0011.39 20.47 24.39 24.39 0 00-11.39 20.47v47.36a3.81 3.81 0 001.11 2.7l4 4a3.27 3.27 0 010 4.64l-4 4.05a3.8 3.8 0 00-1.11 2.68v8.9A45.23 45.23 0 00127 423.54h83.19A45.71 45.71 0 00255.78 378v-25.34a8.51 8.51 0 00-4.27-7.38z" class="cls-2"/><path id="path28" d="M242.61 340.13a2.86 2.86 0 010-5l8.6-5a8.51 8.51 0 004.27-7.38v-18.9a24.4 24.4 0 00-11.4-20.47 24.41 24.41 0 0011.4-20.38h-35a24.41 24.41 0 01-11.4 20.47 24.4 24.4 0 0111.4 20.47v74.36c0 25-20.59 45.24-45.57 45.24h35A45.71 45.71 0 00255.48 378v-25.51a8.53 8.53 0 00-4.27-7.39z" class="cls-3"/><path id="path30" d="M116.52 347.5l3.09-3.09a5.83 5.83 0 00-8.25-8.25l-3.09 3.09-3.09-3.09a5.83 5.83 0 00-8.25 8.25l3.07 3.09-3.09 3.1a5.83 5.83 0 008.25 8.24l3.09-3.09 3.09 3.09a5.83 5.83 0 008.25-8.25z" class="cls-3"/><path id="path32" d="M224 145.78c-.1-.36-.18-.73-.29-1.08l-9-33.64c-4.43-16.51-20.07-25.9-36.59-33.89a4.86 4.86 0 00-5.54.93l-4.08 4.09a1.89 1.89 0 01-3.23-1.34V74.2a4.82 4.82 0 00-2.74-4.36c-14.37-6.87-26.83-14.07-29.94-25.7l-3.7-13.79L95 39.4l3.7 13.8c7.69 28.71 72.34 30.42 82.12 66.91l9 33.65c.12.35.2.72.29 1.08l31.79 118.63 33.81-9.06z" class="cls-3"/><path id="rect34" transform="rotate(-15 153.177 229.347)" class="cls-4" d="M63.17 169.83h180v119h-180z"/><path id="path36" d="M66.29 208.53c-6.56-2.07-12.6-6.77-15.45-13.36l8.76 32.67c-.83-7.14 2.05-14.22 6.69-19.31z" class="cls-5"/><path id="path38" d="M228.74 207.39c6.31 2 12.18 6.42 15.11 12.64l-8.34-31.14c.57 6.85-2.3 13.61-6.77 18.5z" class="cls-5"/><path id="path40" d="M239.33 246.93c6.32 2 12.19 6.43 15.12 12.64l-8.34-31.14c.56 6.85-2.31 13.57-6.78 18.5z" class="cls-5"/><path id="path42" d="M218.14 167.85c6.32 2 12.18 6.42 15.12 12.63l-8.35-31.14c.57 6.85-2.3 13.66-6.77 18.51z" class="cls-5"/><path id="path44" d="M76.88 248.08c-6.56-2.08-12.59-6.78-15.44-13.37l8.75 32.67c-.83-7.13 2.05-14.22 6.69-19.3z" class="cls-5"/><path id="path46" d="M87.48 287.62c-6.56-2.08-12.6-6.78-15.45-13.37l8.76 32.67c-.79-7.13 2.05-14.22 6.69-19.3z" class="cls-5"/><g id="Eyes"><path id="path48" d="M173 202.8a17.56 17.56 0 0033.92-9.09" class="cls-6"/><path id="path50" d="M113.77 205.81a17.56 17.56 0 106.42 24 17.56 17.56 0 00-6.42-24z" class="cls-6"/></g><g id="g55" clip-path="url(#clip-path)"><circle id="circle53" r="40" cy="110.36" cx="50.45" fill="url(#linear-gradient)"/></g><g id="g60" clip-path="url(#clip-path-2)"><path id="path57" d="M201.13 257.47a37.14 37.14 0 10-71.75 19.23" class="cls-6"/><path d="M136.93 235.92l3.48 13 18.14-4.87-3.55-13.14c-9.13 2.51-17 4.67-17.84 4.93z" data-name="Toof matched angle" id="Toof_matched_angle" fill="#dbf4ff"/></g><circle id="circle62" r="13.79" cy="229.93" cx="219.36" class="cls-5"/><circle id="circle64" r="13.79" cy="263.32" cx="94.76" class="cls-5"/><path id="path66" d="M138.54 34.26a7.54 7.54 0 00-6.25-5.48A7.49 7.49 0 00125.35 16l-56.5 15.1a7.49 7.49 0 00.93 14.67 7.49 7.49 0 007 12.82l56.5-15.14a7.53 7.53 0 005.26-9.19z" class="cls-2"/><path id="path68" d="M132.29 28.78a7.54 7.54 0 016.25 5.48l-15.25 1.61a2.29 2.29 0 01-.82-4.49z" fill="url(#linear-gradient-2)"/><path id="path70" d="M239.33 310.05h-44.44a4.63 4.63 0 00-3.15 8l47.59 44z" fill="url(#linear-gradient-3)"/><path id="rect72" transform="matrix(-.97 .26 -.26 -.97 201.23 35.65)" class="cls-4" d="M56.6 10.06h83.33v42H56.6z"/><path id="rect74" transform="rotate(165.01 120.84 25.018)" class="cls-5" d="M114.78 4.02h12.12v42h-12.12z"/><path id="rect76" transform="rotate(165.01 98.2 31.084)" class="cls-5" d="M92.14 10.08h12.12v42H92.14z"/><path id="rect78" transform="rotate(165.01 75.557 37.143)" class="cls-5" d="M69.5 16.14h12.12v42H69.5z"/></g><g id="Drip"><path id="path99" d="M138.66 292.75a7.57 7.57 0 01-15.12.79c-.16-3 3.45-10.09 5.45-13.76a1.65 1.65 0 012.81-.15c2.37 3.44 6.7 10.09 6.86 13.12z" fill="url(#linear-gradient-4)"/><path id="path101" d="M129.86 298.89a6.22 6.22 0 005.88-6.54c-.15-3-5.36-10.42-6.61-12.17a.29.29 0 00-.29-.12c-2 3.74-5.46 10.53-5.3 13.48a7.69 7.69 0 00.21 1.44 6.23 6.23 0 006.11 3.91z" class="cls-2"/></g></svg>