<svg xmlns="http://www.w3.org/2000/svg" xmlns:xlink="http://www.w3.org/1999/xlink" id="svg104" version="1.1" viewBox="0 0 295.48 423.54"><defs id="defs22"><linearGradient gradientUnits="userSpaceOnUse" y2="140.78" x2="86.57" y1="84.41" x1="19.64" id="linear-gradient"><stop id="stop7" stop-color="#6bd5ff" offset="0"/><stop id="stop9" stop-color="#49c4f5" offset="1"/></linearGradient><linearGradient xlink:href="#linear-gradient" y2="32.33" x2="138.54" y1="32.33" x1="120.76" id="linear-gradient-2"/><linearGradient gradientUnits="userSpaceOnUse" y2="336.07" x2="195.64" y1="336.07" x1="224.56" id="linear-gradient-3"><stop id="stop16" stop-opacity=".03" stop-color="#49c4f5" offset="0"/><stop id="stop18" stop-color="#49c4f5" offset="1"/></linearGradient><linearGradient xlink:href="#linear-gradient" gradientTransform="rotate(11.5 129.625 280.56)" y2="295.36" x2="134.84" y1="290.32" x1="131.31" id="linear-gradient-4"/><clipPath id="clip-path"><path id="path4" d="M255.75 264.41a24.41 24.41 0 00-16.31-16.82 24.38 24.38 0 005.71-22.72 24.4 24.4 0 00-16.3-16.82 24.43 24.43 0 005.71-22.72 24.39 24.39 0 00-16.31-16.82 24.43 24.43 0 005.75-22.73c-.1-.36-.18-.73-.29-1.08l-9-33.64c-9.78-36.5-74.43-38.21-82.12-66.92l-3.7-13.79-54.14 14.49 3.7 13.79c8.21 30.64-47.44 62.52-37.66 99l9 33.65c.08.36.2.72.29 1.08a24.39 24.39 0 0016.32 16.83 24.42 24.42 0 00-5.71 22.73A24.42 24.42 0 0077 248.74a24.4 24.4 0 00-5.7 22.72 24.38 24.38 0 0016.3 16.82A24.4 24.4 0 0081.88 311" class="cls-1"/></clipPath><clipPath id="clip-path-2"><path id="path12" d="M201.13 257.47a37.14 37.14 0 10-71.75 19.23" class="cls-1"/></clipPath><style id="style2">.cls-1{fill:none}.cls-2{fill:#6bd5ff}.cls-3{fill:#49c4f5}.cls-5{fill:#e6e6e6}.cls-10{fill:#dbf4ff}</style></defs><g id="Scruffs"><path id="path80" d="M17.68 205l-5.19 9a.82.82 0 00.71 1.23h10.38a.81.81 0 00.7-1.23l-5.18-9a.82.82 0 00-1.42 0z" class="cls-3"/><circle id="circle82" r="4.35" cy="191.9" cx="31.05" class="cls-2"/><circle id="circle84" r="3.08" cy="227.84" cx="3.08" class="cls-10"/><circle id="circle86" r="4.12" cy="260.68" cx="291.36" class="cls-10"/><rect id="rect88" transform="rotate(45 27.889 231.382)" rx="3.31" height="11.8" width="11.8" y="225.48" x="21.99" fill="#fff"/><path id="path90" d="M266.07 274.09l-3.22 4.23a2.93 2.93 0 000 3.55l3.22 4.24a2.94 2.94 0 004.67 0l3.22-4.24a2.93 2.93 0 000-3.55l-3.22-4.23a2.93 2.93 0 00-4.67 0z" class="cls-5"/><path id="path92" d="M11.36 177.33l-3.72 4.89a1 1 0 000 1.21l3.72 4.89a1 1 0 001.59 0l3.72-4.89a1 1 0 000-1.21L13 177.33a1 1 0 00-1.64 0z" class="cls-5"/><path id="path94" d="M266.11 220.35l-1.11 2.09a1.17 1.17 0 00.22 1.36l1.65 1.65a1.17 1.17 0 01-1 2l-2.31-.36a1.17 1.17 0 00-1.23.62l-1.06 2.09a1.18 1.18 0 01-2.21-.35l-.36-2.31a1.19 1.19 0 00-1-1l-2.31-.36a1.18 1.18 0 01-.35-2.21l2.09-1.06a1.17 1.17 0 00.62-1.23l-.36-2.31a1.17 1.17 0 012-1l1.65 1.65a1.15 1.15 0 001.36.21l2.09-1.06a1.18 1.18 0 011.62 1.58z" class="cls-3"/><path id="path96" d="M281.15 244.93l-6.73 6.72a1.1 1.1 0 01-1.88-.67l-.55-5.67a2.82 2.82 0 01.8-2.24l6.73-6.72a1.1 1.1 0 011.88.67l.55 5.67a2.82 2.82 0 01-.8 2.24z" class="cls-2"/></g></svg>