<svg xmlns="http://www.w3.org/2000/svg" xmlns:xlink="http://www.w3.org/1999/xlink" height="255.78" width="407.839" version="1.1" id="Scruffs"><defs id="defs22"><linearGradient gradientUnits="userSpaceOnUse" gradientTransform="rotate(90 263.32 147.74)" y2="128.29" x2="202.15" y1="71.93" x1="135.21" id="linear-gradient"><stop id="stop7" stop-color="#6bd5ff" offset="0"/><stop id="stop9" stop-color="#49c4f5" offset="1"/></linearGradient><linearGradient xlink:href="#linear-gradient" y2="19.85" x2="254.11" y1="19.85" x1="236.33" id="linear-gradient-2"/><linearGradient gradientUnits="userSpaceOnUse" gradientTransform="rotate(90 263.32 147.74)" y2="323.59" x2="311.21" y1="323.59" x1="340.14" id="linear-gradient-3"><stop id="stop16" stop-opacity=".03" stop-color="#49c4f5" offset="0"/><stop id="stop18" stop-color="#49c4f5" offset="1"/></linearGradient><linearGradient xlink:href="#linear-gradient" gradientTransform="rotate(102.1 254.838 152.802)" y2="276.86" x2="260.09" y1="271.82" x1="256.56" id="linear-gradient-4"/><clipPath id="clip-path"><path id="path4" d="M159.13 255.75A24.41 24.41 0 00176 239.44a24.38 24.38 0 0022.72 5.71 24.4 24.4 0 0016.82-16.3 24.43 24.43 0 0022.72 5.71A24.42 24.42 0 00255 218.25a24.4 24.4 0 0022.76 5.75c.36-.1.73-.18 1.08-.29l33.65-9c36.49-9.78 38.2-74.43 66.91-82.12l13.79-3.7-14.49-54.14-13.79 3.7c-30.64 8.21-62.52-47.44-99-37.66l-33.65 9c-.36.08-.72.2-1.08.29a24.41 24.41 0 00-16.83 16.32 24.41 24.41 0 00-22.72-5.71A24.43 24.43 0 00174.8 77a24.4 24.4 0 00-22.72-5.7 24.38 24.38 0 00-16.82 16.3 24.4 24.4 0 00-22.72-5.71" class="cls-1"/></clipPath><clipPath id="clip-path-2"><path id="path12" d="M169.5 199.64a37.15 37.15 0 10-19.23-71.76" class="cls-1"/></clipPath><style id="style2">.cls-1{fill:none}.cls-2{fill:#6bd5ff}.cls-3{fill:#49c4f5}.cls-5{fill:#e6e6e6}.cls-10{fill:#dbf4ff}</style></defs><path id="path81" d="M218.59 17.68l-9-5.19a.82.82 0 00-1.23.71v10.38a.81.81 0 001.23.7l9-5.18a.82.82 0 000-1.42z" class="cls-3"/><circle id="circle83" r="4.35" cy="31.05" cx="231.64" class="cls-2"/><circle id="circle85" r="3.08" cy="3.08" cx="195.71" class="cls-10"/><circle id="circle87" r="4.12" cy="67.24" cx="61.2" class="cls-10"/><rect id="rect89" transform="rotate(135)" rx="3.31" height="11.8" width="11.8" y="-161.497" x="-122.06" fill="#fff"/><path id="path91" d="M47.8 42l-4.24-3.23a3 3 0 00-3.55 0L35.77 42a2.93 2.93 0 000 4.66L40 49.84a2.93 2.93 0 003.55 0l4.24-3.23A2.93 2.93 0 0047.8 42z" class="cls-5"/><path id="path93" d="M246.21 11.36l-4.89-3.72a1 1 0 00-1.21 0l-4.89 3.72a1 1 0 000 1.59l4.89 3.72a1 1 0 001.21 0l4.89-3.67a1 1 0 000-1.64z" class="cls-5"/><path id="path95" d="M101.53 42l-2.08-1.06a1.18 1.18 0 00-1.37.22l-1.65 1.65a1.17 1.17 0 01-2-1l.37-2.31a1.17 1.17 0 00-.63-1.23l-2.07-1.09a1.18 1.18 0 01.34-2.18l2.31-.37a1.17 1.17 0 001-1l.37-2.31A1.17 1.17 0 0198.3 31l1.06 2.08a1.17 1.17 0 001.23.63l2.31-.37a1.18 1.18 0 011 2L102.26 37a1.17 1.17 0 00-.21 1.36l1.06 2.08a1.17 1.17 0 01-1.58 1.56z" class="cls-3"/><path id="path97" d="M77 57l-6.77-6.7a1.11 1.11 0 01.68-1.89l5.67-.54a2.77 2.77 0 012.23.8l6.73 6.73a1.11 1.11 0 01-.68 1.88l-5.67.54A2.75 2.75 0 0177 57z" class="cls-2"/></svg>