<svg xmlns="http://www.w3.org/2000/svg" viewBox="0 0 185.655 23.061" height="87.16" width="701.69"><defs><clipPath id="c"><path class="cls-1" d="M184.29 288.46h153.46v45.14H184.29z"/></clipPath><clipPath id="a"><path class="cls-1" d="M568.87 292.12h317.11v80.95H568.87z"/></clipPath><clipPath id="b"><path class="cls-1" d="M568.87 292.12h317.11v80.95H568.87z"/></clipPath></defs><g clip-path="url(#a)" class="cls-5" transform="translate(-48.76 -76.322) scale(.26458)" fill="#8dd5ea"><g clip-path="url(#b)" class="cls-6"><path d="M647.22 306.91H602a2.25 2.25 0 010-4.49h45.21a2.25 2.25 0 010 4.49M754 303.74h-12.16a2.25 2.25 0 010-4.49H754a2.25 2.25 0 110 4.49m-103.08 69.33h-21.35a2.25 2.25 0 110-4.49h21.35a2.25 2.25 0 110 4.49m232.81-76.46H875a2.25 2.25 0 010-4.49h8.75a2.25 2.25 0 110 4.49M778.31 328.7h-27.14a2.25 2.25 0 010-4.49h27.14a2.25 2.25 0 110 4.49m-95.63 44.37h-7.08a2.25 2.25 0 010-4.49h7.08a2.25 2.25 0 010 4.49m-106.31-76.46h-5.26a2.25 2.25 0 010-4.49h5.26a2.25 2.25 0 010 4.49M818 368.32h-26.5a2.25 2.25 0 010-4.49H818a2.25 2.25 0 110 4.49" class="cls-7"/></g></g><path d="M144.312 10.17h-6.71a.53.53 0 010-1.058h6.71a.53.53 0 010 1.059m-32.851 12.89h-4.088a.53.53 0 010-1.058h4.088a.53.53 0 110 1.058m37.526-6.056h-4.088a.53.53 0 010-1.059h4.088a.53.53 0 010 1.059M107.373 3.879h-1.992a.53.53 0 110-1.059h1.992a.53.53 0 110 1.059m26.728 19.182h-.732a.53.53 0 110-1.058h.732a.53.53 0 110 1.058m-21.486-12.716h6.707a.53.53 0 100-1.058h-6.707a.53.53 0 000 1.058m-11.356 12.716h4.088a.53.53 0 100-1.058h-4.088a.53.53 0 000 1.058m-37.537-6.056h4.088a.53.53 0 000-1.059h-4.088a.53.53 0 000 1.059m50.62-14.822h1.998a.53.53 0 000-1.059h-1.992a.53.53 0 000 1.059m-35.74 20.878h.733a.53.53 0 000-1.058h-.733a.53.53 0 100 1.058M50.228 3.879h6.71a.53.53 0 100-1.059h-6.71a.53.53 0 000 1.059m14.677 19.182h4.088a.53.53 0 000-1.058h-4.088a.53.53 0 000 1.058M27.38 17.005h4.087a.53.53 0 000-1.059h-4.088a.53.53 0 000 1.059m48.604-15.05h1.992a.53.53 0 000-1.058h-1.992a.53.53 0 000 1.058M42.257 23.061h.735a.53.53 0 000-1.058h-.735a.53.53 0 100 1.058" class="cls-7" fill="#8dd5ea" stroke-width=".265"/><g clip-path="url(#c)" class="cls-8" transform="translate(-48.76 -76.322) scale(.26458)" fill="#8dd5ea"><g clip-path="url(#c)" class="cls-8"><path d="M288.5 325.52H326a2 2 0 100-4h-37.5a2 2 0 000 4m41.5-33.1h5.81a2 2 0 000-4H330a2 2 0 100 4M186.27 333.6h9.51a2 2 0 000-4h-9.51a2 2 0 100 4" class="cls-7"/></g></g><path d="M150.55 21.622h4.234a.048.048 0 00.04-.077c-1.204-1.622-3.099-1.622-4.303 0a.048.048 0 00.04.077" class="cls-4" fill="#1d858e" stroke-width=".265"/><path d="M127.357 4.723a1.826 1.826 0 00-1.828 1.757.071.071 0 00.071.074h3.514a.071.071 0 00.071-.074 1.826 1.826 0 00-1.828-1.757" class="cls-2" fill="#166c74" stroke-width=".265"/><path d="M130.16 1.222a1.254 1.254 0 00-1.252 1.202.048.048 0 00.047.05h2.405a.048.048 0 00.05-.05 1.254 1.254 0 00-1.25-1.202" class="cls-4" fill="#1d858e" stroke-width=".265"/></svg>