<svg id="Layer_1" data-name="Layer 1" xmlns="http://www.w3.org/2000/svg" viewBox="0 0 250.9 162.02"><defs><style>.cls-2{fill:#fff}</style></defs><g opacity=".4"><path class="cls-2" d="M190.21 122.84h-20.16a3 3 0 000 5.95h20.16a3 3 0 000-5.95zM147.87 122.84h-93.1a3 3 0 000 5.95h93.1a3 3 0 100-5.95zM24.62 122.84H4.47a3 3 0 000 5.95h20.15a3 3 0 100-5.95zM247.74 159.05a3 3 0 01-3 3h-35.65a3 3 0 010-6h35.68a3 3 0 012.97 3zm-107 0a3 3 0 01-3 3h-2.09a3 3 0 010-6h2.09a3 3 0 012.98 3zM250.9 92.59a3 3 0 01-3 3h-95.11a3 3 0 110-5.95h95.13a3 3 0 012.98 2.95zm-166.49 0a3 3 0 01-3 3H75a3 3 0 010-5.95h6.48a3 3 0 012.93 2.95zM64.34 5.87a48 48 0 0124.43 41.74 3 3 0 01-6 0A42.06 42.06 0 0061.44 11a3 3 0 011.45-5.56 2.92 2.92 0 011.45.43zM33.9 2.12a3 3 0 01-2 3.71 42.09 42.09 0 00-17.6 10.51l-1 1.08a3 3 0 01-4.21.14L9 17.49a3 3 0 01-.07-4.14l1.17-1.22A48.1 48.1 0 0130.2.12a3 3 0 012.95.75 3.06 3.06 0 01.75 1.25zM5.48 70.06a41.75 41.75 0 0035.4 19.48 3 3 0 010 5.94A47.63 47.63 0 01.47 73.26a3 3 0 01.91-4.11A2.9 2.9 0 013 68.69a3 3 0 012.48 1.37z"/></g></svg>